<svg width="233" height="57" xmlns="http://www.w3.org/2000/svg"><g fill="#658cf5" fill-rule="evenodd"><path d="M223.62 39.661h-.237c-.914 1.955-1.987 3.5-3.217 4.636-1.23 1.135-2.838 1.703-4.825 1.703-2.176 0-3.824-.654-4.943-1.963-1.12-1.31-1.68-3.004-1.68-5.086 0-.567.024-1.159.071-1.774.048-.615.15-1.332.308-2.152l2.318-14.003h5.061l-2.365 14.192c-.063.442-.126.907-.189 1.396-.063.488-.095.938-.095 1.348 0 1.104.276 2.034.828 2.791.552.757 1.459 1.135 2.72 1.135.947 0 1.79-.22 2.531-.662.741-.441 1.427-1.04 2.058-1.798.315-.378.765-1.04 1.348-1.987.584-.946.986-2.065 1.207-3.358l2.176-13.057h5.061l-4.068 24.41h-5.062zM189.56 46c-2.398 0-4.479-.37-6.245-1.112-1.766-.74-3.138-1.821-4.116-3.24l3.217-2.839c1.735 2.208 4.242 3.312 7.522 3.312 1.86 0 3.32-.331 4.376-.994 1.056-.662 1.584-1.608 1.584-2.838 0-.946-.291-1.6-.875-1.963-.583-.363-1.317-.623-2.2-.78l-3.547-.616a17.289 17.289 0 01-2.626-.662 7.49 7.49 0 01-2.2-1.159 5.592 5.592 0 01-1.537-1.869c-.394-.756-.591-1.687-.591-2.79 0-1.325.275-2.484.827-3.478a7.494 7.494 0 012.271-2.507c.962-.678 2.09-1.183 3.382-1.514 1.294-.33 2.697-.496 4.21-.496 2.177 0 4.061.323 5.654.97 1.592.646 2.846 1.521 3.76 2.625l-3.122 2.98c-.473-.662-1.245-1.277-2.318-1.845-1.072-.567-2.491-.851-4.257-.851-1.766 0-3.114.315-4.045.946-.93.63-1.395 1.514-1.395 2.649 0 .978.307 1.64.922 1.987.615.347 1.364.6 2.247.757l3.548.662c.883.158 1.735.37 2.555.639.82.268 1.553.63 2.2 1.088a5.087 5.087 0 011.56 1.797c.395.742.592 1.664.592 2.768 0 1.293-.268 2.46-.804 3.5-.537 1.041-1.301 1.924-2.295 2.65-.993.725-2.192 1.277-3.595 1.655-1.403.379-2.957.568-4.66.568zM164.77 16.528c-1.198 0-2.034-.228-2.507-.686-.473-.457-.71-1.001-.71-1.632 0-.189.016-.41.048-.662.031-.252.078-.52.141-.804.158-.852.513-1.522 1.065-2.01.552-.49 1.427-.734 2.625-.734 1.199 0 2.034.229 2.508.686.473.457.71 1.001.71 1.632 0 .19-.017.41-.048.662a8.69 8.69 0 01-.142.804c-.158.852-.513 1.522-1.064 2.011-.552.489-1.428.733-2.626.733zM162.027 46c-1.514 0-2.649-.394-3.406-1.183-.757-.788-1.135-1.813-1.135-3.075 0-.41.031-.82.094-1.23.064-.41.142-.898.237-1.466l2.696-13.908h-8.23l.661-4.116h13.388l-3.974 20.484.947.378 8.183-7.521 2.886 2.601-3.69 3.69a49.002 49.002 0 01-2.649 2.484 19.958 19.958 0 01-2.176 1.656c-.662.425-1.3.733-1.916.922a6.477 6.477 0 01-1.916.284zm-33.209-.568l-3.831-33.02h5.298l1.656 16.558 1.135 11.4h.331l4.873-11.4 7-16.557h5.583l-14.76 33.02zm-23.7.568c-3.343 0-5.858-.883-7.545-2.65-1.688-1.765-2.531-4.367-2.531-7.805 0-2.239.339-4.28 1.017-6.126.678-1.845 1.624-3.43 2.838-4.754a12.83 12.83 0 014.352-3.099c1.688-.74 3.556-1.111 5.606-1.111 1.23 0 2.366.142 3.406.425 1.04.284 1.948.702 2.72 1.254a5.928 5.928 0 011.822 2.082c.441.835.662 1.79.662 2.861 0 .915-.197 1.846-.591 2.792-.395.946-1.207 1.813-2.437 2.601-1.23.789-2.98 1.451-5.25 1.987-2.271.536-5.267.868-8.989.994-.031.22-.047.418-.047.591v.355c0 .757.087 1.474.26 2.152.174.678.465 1.27.875 1.774.41.505.97.9 1.68 1.183.71.284 1.616.426 2.72.426a8.3 8.3 0 002.152-.26 6.438 6.438 0 001.845-.828c.584-.379 1.167-.876 1.75-1.49.584-.616 1.207-1.38 1.869-2.295l3.311 2.129a20.88 20.88 0 01-2.128 2.815c-.757.835-1.6 1.545-2.531 2.128a12.35 12.35 0 01-3.075 1.372c-1.12.331-2.373.497-3.761.497zm3.264-21.714c-2.081 0-3.784.615-5.109 1.845-1.325 1.23-2.192 3.107-2.602 5.63l-.094.52c2.649-.094 4.754-.307 6.315-.638 1.561-.332 2.76-.726 3.595-1.183.836-.457 1.372-.954 1.609-1.49.236-.536.354-1.057.354-1.561 0-.915-.307-1.664-.922-2.247-.615-.584-1.664-.876-3.146-.876zM71.058 12.413h8.799c1.766 0 3.327.268 4.683.804 1.356.536 2.491 1.293 3.406 2.27.915.978 1.608 2.16 2.081 3.548.473 1.388.71 2.933.71 4.637 0 7.19-1.356 12.614-4.068 16.273-2.713 3.658-6.481 5.487-11.306 5.487h-9.84zm4.541 28.714c2.46 0 4.407-.764 5.842-2.294 1.435-1.53 2.405-3.792 2.91-6.788l.851-5.157a26.6 26.6 0 00.237-1.845c.063-.662.094-1.277.094-1.845 0-4.32-2.081-6.48-6.244-6.48h-3.785l-4.068 24.41zM14 56C6.268 56 0 49.732 0 42V28l28 14.424C28 50.156 21.732 56 14 56zm14-13.576L56 28v14c0 7.732-6.268 14-14 14s-14-5.844-14-13.576zM56 28L28 13.576C28 5.844 34.268 0 42 0s14 6.268 14 14v14zM28 13.576L0 28V14C0 6.268 6.268 0 14 0s14 5.844 14 13.576zm0 24.606c-5.623 0-10.182-4.559-10.182-10.182S22.377 17.818 28 17.818 38.182 22.377 38.182 28 33.623 38.182 28 38.182z"/></g></svg>