<?xml version="1.0" encoding="UTF-8"?>
<!-- Generated by Pixelmator Pro 3.6.1 -->
<svg width="120" height="120" viewBox="0 0 120 120" xmlns="http://www.w3.org/2000/svg">
    <g id="Gruppo-copia-6">
        <path id="Rettangolo-copia-2" fill="none" stroke="none" d="M 0 120 L 120 120 L 120 0 L 0 0 Z"/>
        <path id="Ellisse" fill="#7657ff" fill-rule="evenodd" stroke="none" d="M 117 95 C 117 82.849731 107.150269 73 95 73 C 82.849731 73 73 82.849731 73 95 C 73 107.150269 82.849731 117 95 117 C 107.150269 117 117 107.150269 117 95 Z"/>
        <path id="equal24dpFILL0wght400GRAD0opsz24" fill="#ffffff" stroke="none" d="M 85.25 102.5 C 84.625 102.5 84.09375 102.28125 83.65625 101.84375 C 83.21875 101.40625 83 100.875 83 100.25 C 83 99.625 83.21875 99.09375 83.65625 98.65625 C 84.09375 98.21875 84.625 98 85.25 98 L 104.75 98 C 105.375 98 105.90625 98.21875 106.34375 98.65625 C 106.78125 99.09375 107 99.625 107 100.25 C 107 100.875 106.78125 101.40625 106.34375 101.84375 C 105.90625 102.28125 105.375 102.5 104.75 102.5 L 85.25 102.5 Z M 85.25 92 C 84.625 92 84.09375 91.78125 83.65625 91.34375 C 83.21875 90.90625 83 90.375 83 89.75 C 83 89.125 83.21875 88.59375 83.65625 88.15625 C 84.09375 87.71875 84.625 87.5 85.25 87.5 L 104.75 87.5 C 105.375 87.5 105.90625 87.71875 106.34375 88.15625 C 106.78125 88.59375 107 89.125 107 89.75 C 107 90.375 106.78125 90.90625 106.34375 91.34375 C 105.90625 91.78125 105.375 92 104.75 92 L 85.25 92 Z"/>
        <path id="Forma-copia" fill="#b199ff" fill-rule="evenodd" stroke="none" d="M 59.999512 96.363281 C 49.848156 96.363281 41.250156 92.840324 34.20459 85.794922 C 27.159023 78.749519 23.63623 70.15152 23.63623 60 C 23.63623 49.848473 27.159023 41.250481 34.20459 34.205078 C 41.250156 27.159676 49.848156 23.636719 59.999512 23.636719 C 70.150871 23.636719 78.750824 27.159676 85.796387 34.205078 C 92.841957 41.250481 96.362793 49.848473 96.362793 60 C 96.362793 62.070042 96.214348 64.074738 95.921387 66.015625 C 95.615005 66.00605 95.30822 66 94.999512 66 C 91.989952 66 89.088272 66.459686 86.358887 67.310547 C 86.967918 65.004234 87.272949 62.567314 87.272949 60 C 87.272949 58.712074 87.177254 57.443359 86.987793 56.193359 C 86.798347 54.943359 86.515137 53.712074 86.13623 52.5 C 84.99984 52.727211 83.864418 52.897949 82.728027 53.011719 C 81.591957 53.125328 80.454269 53.181641 79.317871 53.181641 C 74.54509 53.181641 69.999512 52.273277 65.681152 50.455078 C 61.363125 48.636887 57.500484 45.984863 54.091309 42.5 C 51.970215 46.818192 49.053547 50.568199 45.341309 53.75 C 41.629398 56.931801 37.423336 59.242188 32.726074 60.681641 C 32.953613 68.105789 35.70134 74.393402 40.966309 79.544922 C 46.231441 84.696533 52.575203 87.273438 59.999512 87.273438 C 62.566906 87.273438 65.003693 86.966469 67.310059 86.357422 C 66.458847 89.087326 65.999512 91.989792 65.999512 95 C 65.999512 95.308701 66.005562 95.615501 66.015137 95.921875 C 64.07431 96.214813 62.069466 96.363281 59.999512 96.363281 Z M 48.63623 69.089844 C 47.348473 69.089844 46.269043 68.65625 45.397949 67.785156 C 44.526531 66.913895 44.091309 65.83284 44.091309 64.544922 C 44.091309 63.257 44.526531 62.177734 45.397949 61.306641 C 46.269043 60.435383 47.348473 60 48.63623 60 C 49.924316 60 51.003418 60.435383 51.874512 61.306641 C 52.745605 62.177734 53.181152 63.257 53.181152 64.544922 C 53.181152 65.83284 52.745605 66.913895 51.874512 67.785156 C 51.003418 68.65625 49.924316 69.089844 48.63623 69.089844 Z M 71.362793 69.089844 C 70.074715 69.089844 68.995605 68.65625 68.124512 67.785156 C 67.253418 66.913895 66.817871 65.83284 66.817871 64.544922 C 66.817871 63.257 67.253418 62.177734 68.124512 61.306641 C 68.995605 60.435383 70.074715 60 71.362793 60 C 72.650558 60 73.72998 60.435383 74.601074 61.306641 C 75.472496 62.177734 75.909668 63.257 75.909668 64.544922 C 75.909668 65.83284 75.472496 66.913895 74.601074 67.785156 C 73.72998 68.65625 72.650398 69.089844 71.362793 69.089844 Z M 34.546387 50.226563 C 37.879719 48.484047 40.417156 46.458984 42.159668 44.148438 C 43.90218 41.837891 45.606285 39.091957 47.272949 35.910156 C 44.394047 37.425293 41.856606 39.412918 39.659668 41.875 C 37.462894 44.337158 35.758789 47.120361 34.546387 50.226563 Z M 79.317871 44.089844 L 80.681152 44.089844 C 81.13591 44.089844 81.591965 44.052246 82.046387 43.976563 C 79.546394 40.567383 76.381996 37.840332 72.556152 35.794922 C 68.730637 33.749512 64.545082 32.726563 59.999512 32.726563 L 58.63623 32.726563 C 58.181805 32.726563 57.765137 32.76416 57.38623 32.839844 C 60.340981 36.249023 63.465988 38.978027 66.76123 41.023438 C 70.056641 43.068848 74.242195 44.089844 79.317871 44.089844 Z"/>
        <path id="aronyouFILL0wght400GRAD0opsz24-copia" fill="#e6ddff" stroke="none" d="M 14.54541 32.727295 C 13.257813 32.727295 12.178223 32.291748 11.306641 31.42041 C 10.435547 30.549072 10 29.469727 10 28.181885 L 10 23.636475 C 10 19.848633 11.325684 16.628906 13.977051 13.977295 C 16.628906 11.325684 19.848633 10 23.63623 10 L 28.181641 10 C 29.469727 10 30.549316 10.435547 31.42041 11.306885 C 32.291504 12.177979 32.727051 13.257568 32.727051 14.54541 C 32.727051 15.833252 32.291504 16.912842 31.42041 17.78418 C 30.549316 18.655273 29.469727 19.09082 28.181641 19.09082 L 23.63623 19.09082 C 22.348633 19.09082 21.269043 19.526367 20.397949 20.397705 C 19.526367 21.269043 19.09082 22.348633 19.09082 23.636475 L 19.09082 28.181885 C 19.09082 29.469727 18.655273 30.549072 17.78418 31.42041 C 16.912598 32.291748 15.833008 32.727295 14.54541 32.727295 Z M 23.63623 110 C 19.848633 110 16.628906 108.674316 13.977051 106.022705 C 11.325684 103.371094 10 100.151367 10 96.363525 L 10 91.818115 C 10 90.530273 10.435547 89.450928 11.306641 88.57959 C 12.178223 87.708252 13.257813 87.272705 14.54541 87.272705 C 15.833008 87.272705 16.912598 87.708252 17.78418 88.57959 C 18.655273 89.450928 19.09082 90.530273 19.09082 91.818115 L 19.09082 96.363525 C 19.09082 97.651367 19.526367 98.730957 20.397949 99.602295 C 21.269043 100.473633 22.348633 100.90918 23.63623 100.90918 L 28.181641 100.90918 C 29.469727 100.90918 30.549316 101.344727 31.42041 102.21582 C 32.291504 103.087158 32.727051 104.166748 32.727051 105.45459 C 32.727051 106.742432 32.291504 107.822021 31.42041 108.693115 C 30.549316 109.564453 29.469727 110 28.181641 110 Z M 100.90918 28.181885 L 100.90918 23.636475 C 100.90918 22.348633 100.473633 21.269043 99.602051 20.397705 C 98.730957 19.526367 97.651367 19.09082 96.36377 19.09082 L 91.818359 19.09082 C 90.530273 19.09082 89.450684 18.655273 88.57959 17.78418 C 87.708496 16.912842 87.272949 15.833252 87.272949 14.54541 C 87.272949 13.257568 87.708496 12.177979 88.57959 11.306885 C 89.450684 10.435547 90.530273 10 91.818359 10 L 96.36377 10 C 100.151367 10 103.371094 11.325684 106.022949 13.977295 C 108.674316 16.628906 110 19.848633 110 23.636475 L 110 28.181885 C 110 29.469727 109.564453 30.549072 108.693359 31.42041 C 107.821777 32.291748 106.742188 32.727295 105.45459 32.727295 C 104.166992 32.727295 103.087402 32.291748 102.21582 31.42041 C 101.344727 30.549072 100.90918 29.469727 100.90918 28.181885 Z"/>
    </g>
</svg>
